<svg width="20" height="19" viewBox="0 0 20 19" fill="none" xmlns="http://www.w3.org/2000/svg">
<path d="M9.07083 0.612343C9.41458 -0.204115 10.5853 -0.204114 10.9291 0.612346L12.9578 5.43123C13.1028 5.77543 13.4305 6.01061 13.8066 6.0404L19.0726 6.45748C19.9648 6.52814 20.3266 7.62813 19.6468 8.2034L15.6347 11.5987C15.3482 11.8412 15.223 12.2218 15.3105 12.5843L16.5363 17.661C16.744 18.5211 15.7968 19.201 15.033 18.7401L10.5245 16.0196C10.2025 15.8252 9.79745 15.8252 9.47543 16.0196L4.96694 18.7401C4.20307 19.201 3.25591 18.5211 3.46359 17.661L4.68938 12.5843C4.77693 12.2218 4.65178 11.8412 4.36521 11.5987L0.353016 8.2034C-0.326764 7.62813 0.0350221 6.52814 0.927245 6.45748L6.19331 6.0404C6.56945 6.01061 6.89711 5.77543 7.04202 5.43123L9.07083 0.612343Z" fill="#57B9FB"/>
</svg>
