<svg width="22" height="15" viewBox="0 0 22 15" fill="none" xmlns="http://www.w3.org/2000/svg">
<path d="M13.25 13.5H2L1.99775 2.1795L10.5732 8.1165C10.6986 8.20327 10.8475 8.24975 11 8.24975C11.1525 8.24975 11.3014 8.20327 11.4268 8.1165L20 2.1825V9H21.5V1.5C21.4994 1.10236 21.3412 0.721173 21.06 0.439997C20.7788 0.158821 20.3976 0.000595125 20 0H2C1.6023 0.000397108 1.221 0.15856 0.939778 0.439779C0.65856 0.720997 0.500397 1.1023 0.5 1.5V13.5C0.500595 13.8976 0.658821 14.2788 0.939997 14.56C1.22117 14.8412 1.60236 14.9994 2 15H13.25V13.5ZM18.3493 1.5L11 6.588L3.65075 1.5H18.3493Z" fill="#333333"/>
</svg>
