<svg width="20" height="20" viewBox="0 0 20 20" fill="none" xmlns="http://www.w3.org/2000/svg">
<path d="M10 0.25C4.62344 0.25 0.25 4.62344 0.25 10C0.25 15.3766 4.62344 19.75 10 19.75C15.3766 19.75 19.75 15.3766 19.75 10C19.75 4.62344 15.3766 0.25 10 0.25ZM16.4477 4.74531C17.6078 6.16328 18.3109 7.96797 18.3273 9.93438C18.0531 9.87578 15.2992 9.31797 12.5289 9.66719C12.4703 9.52422 12.4117 9.38125 12.3508 9.23828C12.1773 8.83281 11.9922 8.42734 11.7977 8.03125C14.875 6.77266 16.2719 4.98437 16.4477 4.74531ZM10 1.68437C12.1164 1.68437 14.05 2.47891 15.5195 3.78203C15.3695 3.99531 14.1156 5.68047 11.1555 6.79141C9.79141 4.28359 8.27969 2.22578 8.04766 1.91641C8.6875 1.76172 9.34141 1.68437 10 1.68437ZM6.45859 2.47656C6.67891 2.77656 8.16719 4.84141 9.54531 7.29297C5.65 8.32656 2.21875 8.3125 1.84609 8.30781C2.3875 5.72266 4.12891 3.57578 6.45859 2.47656ZM1.67266 10.0117C1.67266 9.92734 1.675 9.84062 1.67734 9.75625C2.04062 9.76328 6.07656 9.81484 10.2367 8.57031C10.4758 9.03672 10.7031 9.51016 10.9117 9.98359C10.8016 10.0141 10.6914 10.0469 10.5836 10.082C6.2875 11.4742 4.00234 15.2594 3.8125 15.5805C2.48359 14.1039 1.67266 12.1516 1.67266 10.0117ZM10 18.3391C8.07344 18.3391 6.29922 17.6828 4.88828 16.5812C5.03828 16.2742 6.72344 13.0188 11.4203 11.3805L11.4742 11.3617C12.6438 14.3992 13.1266 16.9469 13.2508 17.6781C12.2234 18.1172 11.1173 18.3421 10 18.3391ZM14.6523 16.9164C14.568 16.4102 14.125 13.9727 13.0352 10.9797C15.6461 10.5625 17.9383 11.2469 18.2219 11.3359C17.8516 13.6516 16.5227 15.6531 14.6523 16.9164Z" fill="#333333"/>
</svg>
