<svg width="22" height="23" viewBox="0 0 22 23" fill="none" xmlns="http://www.w3.org/2000/svg">
<path d="M9.55423 5.74003L6.17123 1.83503C5.78123 1.38503 5.06623 1.38703 4.61323 1.84103L1.83123 4.62803C1.00323 5.45703 0.766232 6.68803 1.24523 7.67503C4.10685 13.6 8.88528 18.3851 14.8062 21.255C15.7922 21.734 17.0222 21.497 17.8502 20.668L20.6582 17.855C21.1132 17.4 21.1142 16.681 20.6602 16.291L16.7402 12.926C16.3302 12.574 15.6932 12.62 15.2822 13.032L13.9182 14.398C13.8484 14.4712 13.7565 14.5195 13.6566 14.5354C13.5567 14.5513 13.4543 14.5339 13.3652 14.486C11.1357 13.2021 9.28622 11.3503 8.00523 9.11903C7.95726 9.02978 7.93989 8.92726 7.95578 8.82719C7.97168 8.72711 8.01996 8.63502 8.09323 8.56503L9.45323 7.20403C9.86523 6.79003 9.91023 6.15003 9.55423 5.73903V5.74003Z" stroke="#333333" stroke-width="2" stroke-linecap="round" stroke-linejoin="round"/>
</svg>
