<svg width="14" height="18" viewBox="0 0 14 18" fill="none" xmlns="http://www.w3.org/2000/svg">
<path d="M0.077212 6.45696C0.077212 5.67896 0.213212 4.94396 0.481212 4.25796C0.737266 3.59166 1.11769 2.98013 1.60221 2.45596C2.08575 1.93867 2.63908 1.49136 3.24621 1.12696C3.86913 0.750109 4.54351 0.465804 5.24821 0.282957C5.96142 0.0956784 6.69582 0.00123175 7.43321 0.00195727C8.57221 0.00195727 9.63221 0.242957 10.6152 0.722957C11.5854 1.1942 12.4112 1.9174 13.0062 2.81696C13.6202 3.73196 13.9252 4.76696 13.9252 5.92096C13.9252 6.61296 13.8572 7.28996 13.7182 7.95196C13.5817 8.61359 13.3648 9.25603 13.0722 9.86496C12.7933 10.4544 12.4287 10.9993 11.9902 11.482C11.5495 11.9569 11.0158 12.3361 10.4222 12.596C9.77782 12.8784 9.08073 13.0205 8.37721 13.013C7.88821 13.013 7.40021 12.898 6.91821 12.667C6.43621 12.437 6.09021 12.121 5.88221 11.716C5.80921 11.997 5.70921 12.403 5.57621 12.934C5.44821 13.464 5.36221 13.806 5.32421 13.961C5.28421 14.115 5.21021 14.372 5.10221 14.728C5.02897 14.9913 4.93501 15.2484 4.82121 15.497L4.47721 16.171C4.32844 16.4602 4.16213 16.74 3.97921 17.009C3.79821 17.271 3.57421 17.584 3.30721 17.944L3.15821 17.997L3.05921 17.889C2.95221 16.756 2.89721 16.078 2.89721 15.854C2.89721 15.191 2.97621 14.447 3.13221 13.621C3.28521 12.796 3.52721 11.759 3.85221 10.512C4.17721 9.26596 4.36321 8.53296 4.41321 8.31596C4.18421 7.84896 4.06821 7.23896 4.06821 6.48896C4.06821 5.88996 4.25521 5.32896 4.63021 4.80096C5.00621 4.27496 5.48121 4.01196 6.05721 4.01196C6.49821 4.01196 6.84021 4.15796 7.08521 4.45096C7.33121 4.74296 7.45121 5.11096 7.45121 5.55996C7.45121 6.03596 7.29321 6.72496 6.97521 7.62596C6.65721 8.52796 6.49921 9.20096 6.49921 9.64796C6.49921 10.101 6.66121 10.48 6.98521 10.777C7.30496 11.0741 7.7278 11.2351 8.16421 11.226C8.56021 11.226 8.92721 11.136 9.26821 10.955C9.60388 10.7793 9.89443 10.5284 10.1172 10.222C10.6024 9.55625 10.9483 8.79948 11.1342 7.99696C11.2302 7.57496 11.3042 7.17396 11.3502 6.79696C11.3992 6.41796 11.4202 6.05996 11.4202 5.71996C11.4202 4.47296 11.0242 3.50096 10.2372 2.80496C9.44621 2.10896 8.41621 1.76296 7.14921 1.76296C5.70821 1.76296 4.50321 2.22896 3.53821 3.16396C2.57221 4.09596 2.08621 5.28096 2.08621 6.71796C2.08621 7.03496 2.13421 7.34096 2.22521 7.63696C2.31421 7.93196 2.41121 8.16696 2.51621 8.34096C2.62021 8.51196 2.71821 8.67896 2.80721 8.83296C2.89721 8.98696 2.94421 9.09696 2.94421 9.16296C2.94421 9.36496 2.89121 9.62796 2.78421 9.95296C2.67321 10.278 2.54221 10.44 2.38421 10.44C2.36921 10.44 2.30721 10.429 2.19921 10.406C1.82517 10.2943 1.48739 10.0855 1.22021 9.80096C0.936649 9.50601 0.712866 9.15896 0.561212 8.77896C0.40999 8.40031 0.292207 8.00915 0.209212 7.60996C0.119544 7.23224 0.0752309 6.84517 0.077212 6.45696Z" fill="#333333"/>
</svg>
